<?xml version="1.0" encoding="UTF-8" standalone="no"?>
<!DOCTYPE svg PUBLIC "-//W3C//DTD SVG 1.1//EN"
 "http://www.w3.org/Graphics/SVG/1.1/DTD/svg11.dtd">
<!-- Generated by graphviz version 2.43.0 (0)
 -->
<!-- Title: G Pages: 1 -->
<svg width="1025pt" height="545pt"
 viewBox="0.00 0.00 1025.22 545.13" xmlns="http://www.w3.org/2000/svg" xmlns:xlink="http://www.w3.org/1999/xlink">
<g id="graph0" class="graph" transform="scale(1 1) rotate(0) translate(4 541.13)">
<title>G</title><style>.edge>path:hover{stroke-width:8}</style>
<polygon fill="white" stroke="transparent" points="-4,4 -4,-541.13 1021.22,-541.13 1021.22,4 -4,4"/>
<!-- fastapi -->
<g id="node1" class="node">
<title>fastapi</title><style>.edge>path:hover{stroke-width:8}</style>
<ellipse fill="#d02424" stroke="black" cx="665.84" cy="-328.49" rx="27.16" ry="18"/>
<text text-anchor="middle" x="665.84" y="-325.99" font-family="Helvetica,sans-Serif" font-size="10.00" fill="#ffffff">fastapi</text>
</g>
<!-- simultons_clock -->
<g id="node10" class="node">
<title>simultons_clock</title><style>.edge>path:hover{stroke-width:8}</style>
<ellipse fill="#3a7eb0" stroke="black" cx="392.84" cy="-171.64" rx="43.68" ry="21.43"/>
<text text-anchor="middle" x="392.84" y="-174.64" font-family="Helvetica,sans-Serif" font-size="10.00" fill="#ffffff">simultons.</text>
<text text-anchor="middle" x="392.84" y="-163.64" font-family="Helvetica,sans-Serif" font-size="10.00" fill="#ffffff">clock</text>
</g>
<!-- fastapi&#45;&gt;simultons_clock -->
<g id="edge1" class="edge">
<title>fastapi&#45;&gt;simultons_clock</title><style>.edge>path:hover{stroke-width:8}</style>
<path fill="none" stroke="black" d="M646.98,-315.34C641.61,-312.32 635.64,-309.36 629.84,-307.28 518.52,-267.46 424.17,-356.07 369.84,-251.07"/>
</g>
<!-- simultons_elevator -->
<g id="node11" class="node">
<title>simultons_elevator</title><style>.edge>path:hover{stroke-width:8}</style>
<ellipse fill="#336d99" stroke="black" cx="665.84" cy="-93.21" rx="43.68" ry="21.43"/>
<text text-anchor="middle" x="665.84" y="-96.21" font-family="Helvetica,sans-Serif" font-size="10.00" fill="#ffffff">simultons.</text>
<text text-anchor="middle" x="665.84" y="-85.21" font-family="Helvetica,sans-Serif" font-size="10.00" fill="#ffffff">elevator</text>
</g>
<!-- fastapi&#45;&gt;simultons_elevator -->
<g id="edge2" class="edge">
<title>fastapi&#45;&gt;simultons_elevator</title><style>.edge>path:hover{stroke-width:8}</style>
<path fill="none" stroke="black" d="M662.54,-310.5C660.21,-294.61 658.64,-270.47 665.84,-251.07"/>
</g>
<!-- simultons_simulation -->
<g id="node16" class="node">
<title>simultons_simulation</title><style>.edge>path:hover{stroke-width:8}</style>
<ellipse fill="#2e628a" stroke="black" cx="881.84" cy="-171.64" rx="43.68" ry="21.43"/>
<text text-anchor="middle" x="881.84" y="-174.64" font-family="Helvetica,sans-Serif" font-size="10.00" fill="#ffffff">simultons.</text>
<text text-anchor="middle" x="881.84" y="-163.64" font-family="Helvetica,sans-Serif" font-size="10.00" fill="#ffffff">simulation</text>
</g>
<!-- fastapi&#45;&gt;simultons_simulation -->
<g id="edge3" class="edge">
<title>fastapi&#45;&gt;simultons_simulation</title><style>.edge>path:hover{stroke-width:8}</style>
<path fill="none" stroke="black" d="M684.77,-315.51C690.13,-312.49 696.08,-309.48 701.84,-307.28 785.27,-275.32 868.15,-336.33 894.84,-251.07"/>
<path fill="none" stroke="black" d="M894.84,-249.07C899.53,-234.08 897.25,-216.88 893.37,-202.59"/>
<polygon fill="#d02424" stroke="black" points="896.63,-201.3 890.34,-192.78 889.95,-203.37 896.63,-201.3"/>
</g>
<!-- simultons_simulton -->
<g id="node17" class="node">
<title>simultons_simulton</title><style>.edge>path:hover{stroke-width:8}</style>
<ellipse fill="#286fa3" stroke="black" cx="737.84" cy="-171.64" rx="43.68" ry="21.43"/>
<text text-anchor="middle" x="737.84" y="-174.64" font-family="Helvetica,sans-Serif" font-size="10.00" fill="#ffffff">simultons.</text>
<text text-anchor="middle" x="737.84" y="-163.64" font-family="Helvetica,sans-Serif" font-size="10.00" fill="#ffffff">simulton</text>
</g>
<!-- fastapi&#45;&gt;simultons_simulton -->
<g id="edge4" class="edge">
<title>fastapi&#45;&gt;simultons_simulton</title><style>.edge>path:hover{stroke-width:8}</style>
<path fill="none" stroke="black" d="M685.46,-315.85C704.69,-302.92 731.96,-280.01 737.84,-251.07"/>
</g>
<!-- fastapi_responses -->
<g id="node2" class="node">
<title>fastapi_responses</title><style>.edge>path:hover{stroke-width:8}</style>
<ellipse fill="#d92626" stroke="black" cx="744.84" cy="-406.92" rx="43.68" ry="21.43"/>
<text text-anchor="middle" x="744.84" y="-409.92" font-family="Helvetica,sans-Serif" font-size="10.00" fill="#ffffff">fastapi.</text>
<text text-anchor="middle" x="744.84" y="-398.92" font-family="Helvetica,sans-Serif" font-size="10.00" fill="#ffffff">responses</text>
</g>
<!-- fastapi_responses&#45;&gt;fastapi -->
<g id="edge5" class="edge">
<title>fastapi_responses&#45;&gt;fastapi</title><style>.edge>path:hover{stroke-width:8}</style>
<path fill="none" stroke="black" d="M725.72,-387.42C714.33,-376.4 699.83,-362.37 687.95,-350.88"/>
<polygon fill="#d92626" stroke="black" points="690.2,-348.19 680.58,-343.76 685.34,-353.22 690.2,-348.19"/>
</g>
<!-- fastapi_responses&#45;&gt;simultons_clock -->
<g id="edge6" class="edge">
<title>fastapi_responses&#45;&gt;simultons_clock</title><style>.edge>path:hover{stroke-width:8}</style>
<path fill="none" stroke="black" d="M703.05,-400.47C661.69,-393.62 597.79,-379.01 549.84,-349.71 539.32,-343.28 538.71,-338.99 530.84,-329.49"/>
<path fill="none" stroke="black" d="M530.84,-327.49C480.31,-266.5 406.24,-321.42 369.84,-251.07"/>
<path fill="none" stroke="black" d="M369.84,-249.07C362.06,-234.02 366.95,-215.92 374.19,-201.11"/>
<polygon fill="#d92626" stroke="black" points="377.48,-202.38 379.17,-191.92 371.33,-199.04 377.48,-202.38"/>
</g>
<!-- fastapi_responses&#45;&gt;simultons_elevator -->
<g id="edge7" class="edge">
<title>fastapi_responses&#45;&gt;simultons_elevator</title><style>.edge>path:hover{stroke-width:8}</style>
<path fill="none" stroke="black" d="M530.84,-327.49C486.85,-274.4 641.85,-315.71 665.84,-251.07"/>
<path fill="none" stroke="black" d="M665.84,-249.07C677.66,-217.22 652.43,-203.85 665.84,-172.64"/>
</g>
<!-- fastapi_responses&#45;&gt;simultons_simulation -->
<g id="edge8" class="edge">
<title>fastapi_responses&#45;&gt;simultons_simulation</title><style>.edge>path:hover{stroke-width:8}</style>
<path fill="none" stroke="black" d="M786.4,-399.74C824.54,-391.42 877.65,-372.35 894.84,-329.49"/>
<path fill="none" stroke="black" d="M894.84,-327.49C907.49,-295.97 884.69,-283.48 894.84,-251.07"/>
</g>
<!-- fastapi_utils -->
<g id="node3" class="node">
<title>fastapi_utils</title><style>.edge>path:hover{stroke-width:8}</style>
<ellipse fill="#c2b147" stroke="black" cx="596.84" cy="-250.07" rx="40.74" ry="18"/>
<text text-anchor="middle" x="596.84" y="-247.57" font-family="Helvetica,sans-Serif" font-size="10.00" fill="#000000">fastapi_utils</text>
</g>
<!-- fastapi_utils&#45;&gt;simultons_elevator -->
<g id="edge9" class="edge">
<title>fastapi_utils&#45;&gt;simultons_elevator</title><style>.edge>path:hover{stroke-width:8}</style>
<path fill="none" stroke="black" d="M616.12,-234.11C632.51,-220.16 655.04,-197.77 665.84,-172.64"/>
</g>
<!-- simultons_schemas -->
<g id="node15" class="node">
<title>simultons_schemas</title><style>.edge>path:hover{stroke-width:8}</style>
<ellipse fill="#3a7eb0" stroke="black" cx="523.84" cy="-93.21" rx="43.68" ry="21.43"/>
<text text-anchor="middle" x="523.84" y="-96.21" font-family="Helvetica,sans-Serif" font-size="10.00" fill="#ffffff">simultons.</text>
<text text-anchor="middle" x="523.84" y="-85.21" font-family="Helvetica,sans-Serif" font-size="10.00" fill="#ffffff">schemas</text>
</g>
<!-- fastapi_utils&#45;&gt;simultons_schemas -->
<g id="edge10" class="edge">
<title>fastapi_utils&#45;&gt;simultons_schemas</title><style>.edge>path:hover{stroke-width:8}</style>
<path fill="none" stroke="black" d="M569.25,-236.72C535.66,-220.75 483.72,-192.63 486.84,-172.64"/>
</g>
<!-- fastapi_utils_enums -->
<g id="node4" class="node">
<title>fastapi_utils_enums</title><style>.edge>path:hover{stroke-width:8}</style>
<ellipse fill="#c2b147" stroke="black" cx="486.84" cy="-250.07" rx="50.82" ry="21.43"/>
<text text-anchor="middle" x="486.84" y="-253.07" font-family="Helvetica,sans-Serif" font-size="10.00" fill="#000000">fastapi_utils.</text>
<text text-anchor="middle" x="486.84" y="-242.07" font-family="Helvetica,sans-Serif" font-size="10.00" fill="#000000">enums</text>
</g>
<!-- fastapi_utils_enums&#45;&gt;simultons_elevator -->
<g id="edge11" class="edge">
<title>fastapi_utils_enums&#45;&gt;simultons_elevator</title><style>.edge>path:hover{stroke-width:8}</style>
<path fill="none" stroke="black" d="M524.91,-235.95C575.68,-218.01 659.9,-186.45 665.84,-172.64"/>
<path fill="none" stroke="black" d="M665.84,-170.64C672,-156.32 672.5,-139.04 671.25,-124.55"/>
<polygon fill="#c2b147" stroke="black" points="674.72,-124.09 670.08,-114.56 667.76,-124.9 674.72,-124.09"/>
</g>
<!-- fastapi_utils_enums&#45;&gt;simultons_schemas -->
<g id="edge12" class="edge">
<title>fastapi_utils_enums&#45;&gt;simultons_schemas</title><style>.edge>path:hover{stroke-width:8}</style>
<path fill="none" stroke="black" d="M485.15,-228.82C484.26,-213.34 483.89,-191.52 486.84,-172.64"/>
</g>
<!-- httpx -->
<g id="node5" class="node">
<title>httpx</title><style>.edge>path:hover{stroke-width:8}</style>
<ellipse fill="#65ce3b" stroke="black" cx="255.84" cy="-250.07" rx="27" ry="18"/>
<text text-anchor="middle" x="255.84" y="-247.57" font-family="Helvetica,sans-Serif" font-size="10.00" fill="#000000">httpx</text>
</g>
<!-- simultons_arestc -->
<g id="node8" class="node">
<title>simultons_arestc</title><style>.edge>path:hover{stroke-width:8}</style>
<ellipse fill="#4089c0" stroke="black" cx="255.84" cy="-93.21" rx="43.68" ry="21.43"/>
<text text-anchor="middle" x="255.84" y="-96.21" font-family="Helvetica,sans-Serif" font-size="10.00" fill="#ffffff">simultons.</text>
<text text-anchor="middle" x="255.84" y="-85.21" font-family="Helvetica,sans-Serif" font-size="10.00" fill="#ffffff">arestc</text>
</g>
<!-- httpx&#45;&gt;simultons_arestc -->
<g id="edge13" class="edge">
<title>httpx&#45;&gt;simultons_arestc</title><style>.edge>path:hover{stroke-width:8}</style>
<path fill="none" stroke="black" d="M255.84,-170.64C252.88,-155.7 252.58,-138.8 253.14,-124.7"/>
<polygon fill="#65ce3b" stroke="black" points="256.64,-124.72 253.71,-114.54 249.65,-124.32 256.64,-124.72"/>
</g>
<!-- simultons_fast_launcher -->
<g id="node12" class="node">
<title>simultons_fast_launcher</title><style>.edge>path:hover{stroke-width:8}</style>
<ellipse fill="#3d83b8" stroke="black" cx="370.84" cy="-93.21" rx="53.07" ry="21.43"/>
<text text-anchor="middle" x="370.84" y="-96.21" font-family="Helvetica,sans-Serif" font-size="10.00" fill="#ffffff">simultons.</text>
<text text-anchor="middle" x="370.84" y="-85.21" font-family="Helvetica,sans-Serif" font-size="10.00" fill="#ffffff">fast_launcher</text>
</g>
<!-- httpx&#45;&gt;simultons_fast_launcher -->
<g id="edge14" class="edge">
<title>httpx&#45;&gt;simultons_fast_launcher</title><style>.edge>path:hover{stroke-width:8}</style>
<path fill="none" stroke="black" d="M255.84,-170.64C252.35,-153.01 292.38,-129.82 326.16,-113.63"/>
<polygon fill="#65ce3b" stroke="black" points="327.91,-116.67 335.48,-109.26 324.94,-110.34 327.91,-116.67"/>
</g>
<!-- simultons_restc -->
<g id="node14" class="node">
<title>simultons_restc</title><style>.edge>path:hover{stroke-width:8}</style>
<ellipse fill="#4089c0" stroke="black" cx="43.84" cy="-93.21" rx="43.68" ry="21.43"/>
<text text-anchor="middle" x="43.84" y="-96.21" font-family="Helvetica,sans-Serif" font-size="10.00" fill="#ffffff">simultons.</text>
<text text-anchor="middle" x="43.84" y="-85.21" font-family="Helvetica,sans-Serif" font-size="10.00" fill="#ffffff">restc</text>
</g>
<!-- httpx&#45;&gt;simultons_restc -->
<g id="edge15" class="edge">
<title>httpx&#45;&gt;simultons_restc</title><style>.edge>path:hover{stroke-width:8}</style>
<path fill="none" stroke="black" d="M257.73,-231.88C259,-216.27 259.81,-192.68 255.84,-172.64"/>
<path fill="none" stroke="black" d="M255.84,-170.64C241.28,-97.11 167.2,-140.27 96.84,-114.43 93.55,-113.22 90.15,-111.96 86.74,-110.68"/>
<polygon fill="#65ce3b" stroke="black" points="87.75,-107.32 77.16,-107.06 85.28,-113.87 87.75,-107.32"/>
</g>
<!-- pydantic -->
<g id="node6" class="node">
<title>pydantic</title><style>.edge>path:hover{stroke-width:8}</style>
<ellipse fill="#33cc8a" stroke="black" cx="589.84" cy="-328.49" rx="31.4" ry="18"/>
<text text-anchor="middle" x="589.84" y="-325.99" font-family="Helvetica,sans-Serif" font-size="10.00" fill="#000000">pydantic</text>
</g>
<!-- pydantic&#45;&gt;simultons_schemas -->
<g id="edge16" class="edge">
<title>pydantic&#45;&gt;simultons_schemas</title><style>.edge>path:hover{stroke-width:8}</style>
<path fill="none" stroke="black" d="M566.25,-316.22C559.42,-313.14 551.9,-309.93 544.84,-307.28 493.51,-288.01 459.47,-315.35 426.84,-271.28 415.62,-256.12 419.34,-246.15 426.84,-228.85 441.37,-195.32 481.2,-208.74 486.84,-172.64"/>
<path fill="none" stroke="black" d="M486.84,-170.64C488.94,-153.48 496.89,-135.99 504.88,-122.09"/>
<polygon fill="#33cc8a" stroke="black" points="507.89,-123.88 510.08,-113.51 501.9,-120.25 507.89,-123.88"/>
</g>
<!-- pydantic&#45;&gt;simultons_simulton -->
<g id="edge17" class="edge">
<title>pydantic&#45;&gt;simultons_simulton</title><style>.edge>path:hover{stroke-width:8}</style>
<path fill="none" stroke="black" d="M612.61,-315.88C654.07,-294.7 737.67,-251.92 737.84,-251.07"/>
<path fill="none" stroke="black" d="M737.84,-249.07C740.87,-234.15 741.19,-217.25 740.61,-203.14"/>
<polygon fill="#33cc8a" stroke="black" points="744.09,-202.76 740.03,-192.97 737.11,-203.16 744.09,-202.76"/>
</g>
<!-- simultons -->
<g id="node7" class="node">
<title>simultons</title><style>.edge>path:hover{stroke-width:8}</style>
<ellipse fill="#085c9b" stroke="black" cx="410.84" cy="-18" rx="34.96" ry="18"/>
<text text-anchor="middle" x="410.84" y="-15.5" font-family="Helvetica,sans-Serif" font-size="10.00" fill="#ffffff">simultons</text>
</g>
<!-- simultons_arestc&#45;&gt;simultons -->
<g id="edge18" class="edge">
<title>simultons_arestc&#45;&gt;simultons</title><style>.edge>path:hover{stroke-width:8}</style>
<path fill="none" stroke="black" d="M286.46,-77.75C312.51,-65.45 349.86,-47.8 376.83,-35.06"/>
<polygon fill="#4089c0" stroke="black" points="378.36,-38.22 385.9,-30.78 375.37,-31.89 378.36,-38.22"/>
</g>
<!-- simultons_button -->
<g id="node9" class="node">
<title>simultons_button</title><style>.edge>path:hover{stroke-width:8}</style>
<ellipse fill="#478dc2" stroke="black" cx="149.84" cy="-93.21" rx="43.68" ry="21.43"/>
<text text-anchor="middle" x="149.84" y="-96.21" font-family="Helvetica,sans-Serif" font-size="10.00" fill="#ffffff">simultons.</text>
<text text-anchor="middle" x="149.84" y="-85.21" font-family="Helvetica,sans-Serif" font-size="10.00" fill="#ffffff">button</text>
</g>
<!-- simultons_button&#45;&gt;simultons -->
<g id="edge19" class="edge">
<title>simultons_button&#45;&gt;simultons</title><style>.edge>path:hover{stroke-width:8}</style>
<path fill="none" stroke="black" d="M182.71,-79.01C189.33,-76.54 196.27,-74.08 202.84,-72 259.94,-53.9 327.34,-37.64 369.6,-28.04"/>
<polygon fill="#478dc2" stroke="black" points="370.53,-31.41 379.52,-25.8 368.99,-24.58 370.53,-31.41"/>
</g>
<!-- simultons_clock&#45;&gt;simultons -->
<g id="edge20" class="edge">
<title>simultons_clock&#45;&gt;simultons</title><style>.edge>path:hover{stroke-width:8}</style>
<path fill="none" stroke="black" d="M410.59,-152C419.1,-141.77 428.39,-128.35 432.84,-114.43 440.28,-91.15 432.43,-63.93 424.12,-44.54"/>
<polygon fill="#3a7eb0" stroke="black" points="427.29,-43.06 419.93,-35.43 420.93,-45.98 427.29,-43.06"/>
</g>
<!-- simultons_elevator&#45;&gt;simultons -->
<g id="edge21" class="edge">
<title>simultons_elevator&#45;&gt;simultons</title><style>.edge>path:hover{stroke-width:8}</style>
<path fill="none" stroke="black" d="M629.03,-81.65C581.52,-68 499.16,-44.36 450.36,-30.35"/>
<polygon fill="#336d99" stroke="black" points="451.06,-26.91 440.48,-27.51 449.13,-33.63 451.06,-26.91"/>
</g>
<!-- simultons_fast_launcher&#45;&gt;simultons -->
<g id="edge22" class="edge">
<title>simultons_fast_launcher&#45;&gt;simultons</title><style>.edge>path:hover{stroke-width:8}</style>
<path fill="none" stroke="black" d="M381.77,-72.21C386.44,-63.66 391.95,-53.58 396.9,-44.51"/>
<polygon fill="#3d83b8" stroke="black" points="400.09,-45.98 401.81,-35.52 393.95,-42.62 400.09,-45.98"/>
</g>
<!-- simultons_globals -->
<g id="node13" class="node">
<title>simultons_globals</title><style>.edge>path:hover{stroke-width:8}</style>
<ellipse fill="#2f91db" stroke="black" cx="809.84" cy="-250.07" rx="43.68" ry="21.43"/>
<text text-anchor="middle" x="809.84" y="-253.07" font-family="Helvetica,sans-Serif" font-size="10.00" fill="#ffffff">simultons.</text>
<text text-anchor="middle" x="809.84" y="-242.07" font-family="Helvetica,sans-Serif" font-size="10.00" fill="#ffffff">globals</text>
</g>
<!-- simultons_globals&#45;&gt;simultons -->
<g id="edge23" class="edge">
<title>simultons_globals&#45;&gt;simultons</title><style>.edge>path:hover{stroke-width:8}</style>
<path fill="none" stroke="black" d="M812.89,-228.89C818.03,-191.65 826.36,-114.13 809.84,-94.21"/>
</g>
<!-- simultons_globals&#45;&gt;simultons_simulation -->
<g id="edge24" class="edge">
<title>simultons_globals&#45;&gt;simultons_simulation</title><style>.edge>path:hover{stroke-width:8}</style>
<path fill="none" stroke="black" d="M827.27,-230.57C836.31,-220.97 847.51,-209.08 857.4,-198.58"/>
<polygon fill="#2f91db" stroke="black" points="860.01,-200.91 864.32,-191.23 854.92,-196.11 860.01,-200.91"/>
</g>
<!-- simultons_globals&#45;&gt;simultons_simulton -->
<g id="edge25" class="edge">
<title>simultons_globals&#45;&gt;simultons_simulton</title><style>.edge>path:hover{stroke-width:8}</style>
<path fill="none" stroke="black" d="M792.41,-230.57C783.37,-220.97 772.17,-209.08 762.28,-198.58"/>
<polygon fill="#2f91db" stroke="black" points="764.76,-196.11 755.36,-191.23 759.67,-200.91 764.76,-196.11"/>
</g>
<!-- simultons_restc&#45;&gt;simultons -->
<g id="edge26" class="edge">
<title>simultons_restc&#45;&gt;simultons</title><style>.edge>path:hover{stroke-width:8}</style>
<path fill="none" stroke="black" d="M76.02,-78.78C82.81,-76.28 90,-73.86 96.84,-72 191.39,-46.26 305.54,-30.76 366.82,-23.65"/>
<polygon fill="#4089c0" stroke="black" points="367.37,-27.11 376.91,-22.5 366.58,-20.16 367.37,-27.11"/>
</g>
<!-- simultons_schemas&#45;&gt;simultons -->
<g id="edge27" class="edge">
<title>simultons_schemas&#45;&gt;simultons</title><style>.edge>path:hover{stroke-width:8}</style>
<path fill="none" stroke="black" d="M498.48,-75.78C481.15,-64.55 458.12,-49.63 440.02,-37.91"/>
<polygon fill="#3a7eb0" stroke="black" points="441.88,-34.94 431.58,-32.44 438.07,-40.81 441.88,-34.94"/>
</g>
<!-- simultons_simulation&#45;&gt;simultons -->
<g id="edge28" class="edge">
<title>simultons_simulation&#45;&gt;simultons</title><style>.edge>path:hover{stroke-width:8}</style>
<path fill="none" stroke="black" d="M863.1,-152.09C848.15,-136.98 826.94,-114.84 809.84,-94.21"/>
</g>
<!-- simultons_simulton&#45;&gt;simultons -->
<g id="edge29" class="edge">
<title>simultons_simulton&#45;&gt;simultons</title><style>.edge>path:hover{stroke-width:8}</style>
<path fill="none" stroke="black" d="M767.97,-156.21C795.27,-141.21 828.57,-116.81 809.84,-94.21"/>
<path fill="none" stroke="black" d="M809.84,-92.21C765.27,-38.45 550.31,-24.05 455.7,-20.29"/>
<polygon fill="#286fa3" stroke="black" points="455.7,-16.79 445.58,-19.91 455.44,-23.78 455.7,-16.79"/>
</g>
<!-- simultons_simulton&#45;&gt;simultons_elevator -->
<g id="edge30" class="edge">
<title>simultons_simulton&#45;&gt;simultons_elevator</title><style>.edge>path:hover{stroke-width:8}</style>
<path fill="none" stroke="black" d="M720.41,-152.14C711.37,-142.54 700.17,-130.66 690.28,-120.16"/>
<polygon fill="#286fa3" stroke="black" points="692.76,-117.69 683.36,-112.81 687.67,-122.49 692.76,-117.69"/>
</g>
<!-- starlette -->
<g id="node18" class="node">
<title>starlette</title><style>.edge>path:hover{stroke-width:8}</style>
<ellipse fill="#602fdb" stroke="black" cx="894.84" cy="-519.13" rx="30.72" ry="18"/>
<text text-anchor="middle" x="894.84" y="-516.63" font-family="Helvetica,sans-Serif" font-size="10.00" fill="#ffffff">starlette</text>
</g>
<!-- starlette&#45;&gt;fastapi -->
<g id="edge31" class="edge">
<title>starlette&#45;&gt;fastapi</title><style>.edge>path:hover{stroke-width:8}</style>
<path fill="none" stroke="black" d="M894.84,-464.13C883.81,-441.72 906.49,-430.02 894.84,-407.92"/>
<path fill="none" stroke="black" d="M894.84,-405.92C853.18,-326.89 784.22,-384.29 701.84,-349.71 699.33,-348.65 696.76,-347.46 694.22,-346.2"/>
<polygon fill="#602fdb" stroke="black" points="695.71,-343.03 685.24,-341.45 692.44,-349.22 695.71,-343.03"/>
</g>
<!-- starlette&#45;&gt;fastapi_responses -->
<g id="edge32" class="edge">
<title>starlette&#45;&gt;fastapi_responses</title><style>.edge>path:hover{stroke-width:8}</style>
<path fill="none" stroke="black" d="M898.55,-501.03C900.03,-490.2 900.29,-476.19 894.84,-465.13"/>
<path fill="none" stroke="black" d="M894.84,-464.13C877.68,-429.27 834.58,-415.72 798.95,-410.6"/>
<polygon fill="#602fdb" stroke="black" points="799.01,-407.08 788.66,-409.32 798.15,-414.03 799.01,-407.08"/>
</g>
<!-- starlette&#45;&gt;simultons_simulation -->
<g id="edge33" class="edge">
<title>starlette&#45;&gt;simultons_simulation</title><style>.edge>path:hover{stroke-width:8}</style>
<path fill="none" stroke="black" d="M894.84,-405.92C879,-375.87 882.19,-361.02 894.84,-329.49"/>
</g>
<!-- starlette_background -->
<g id="node19" class="node">
<title>starlette_background</title><style>.edge>path:hover{stroke-width:8}</style>
<ellipse fill="#6a4cb3" stroke="black" cx="969.84" cy="-328.49" rx="47.25" ry="21.43"/>
<text text-anchor="middle" x="969.84" y="-331.49" font-family="Helvetica,sans-Serif" font-size="10.00" fill="#ffffff">starlette.</text>
<text text-anchor="middle" x="969.84" y="-320.49" font-family="Helvetica,sans-Serif" font-size="10.00" fill="#ffffff">background</text>
</g>
<!-- starlette_background&#45;&gt;simultons_simulation -->
<g id="edge34" class="edge">
<title>starlette_background&#45;&gt;simultons_simulation</title><style>.edge>path:hover{stroke-width:8}</style>
<path fill="none" stroke="black" d="M937.63,-312.72C913.69,-299.34 886.51,-277.68 894.84,-251.07"/>
</g>
<!-- zmq -->
<g id="node20" class="node">
<title>zmq</title><style>.edge>path:hover{stroke-width:8}</style>
<ellipse fill="#d926bf" stroke="black" cx="737.84" cy="-328.49" rx="27" ry="18"/>
<text text-anchor="middle" x="737.84" y="-325.99" font-family="Helvetica,sans-Serif" font-size="10.00" fill="#ffffff">zmq</text>
</g>
<!-- zmq&#45;&gt;simultons_simulation -->
<g id="edge35" class="edge">
<title>zmq&#45;&gt;simultons_simulation</title><style>.edge>path:hover{stroke-width:8}</style>
<path fill="none" stroke="black" d="M757.41,-315.91C762.67,-312.96 768.41,-309.89 773.84,-307.28 827.29,-281.59 877.13,-307.66 894.84,-251.07"/>
</g>
<!-- zmq&#45;&gt;simultons_simulton -->
<g id="edge36" class="edge">
<title>zmq&#45;&gt;simultons_simulton</title><style>.edge>path:hover{stroke-width:8}</style>
<path fill="none" stroke="black" d="M735.9,-310.3C734.6,-294.68 733.77,-271.09 737.84,-251.07"/>
</g>
<!-- zmq_asyncio -->
<g id="node21" class="node">
<title>zmq_asyncio</title><style>.edge>path:hover{stroke-width:8}</style>
<ellipse fill="#c040ad" stroke="black" cx="824.84" cy="-328.49" rx="42.27" ry="18"/>
<text text-anchor="middle" x="824.84" y="-325.99" font-family="Helvetica,sans-Serif" font-size="10.00" fill="#ffffff">zmq.asyncio</text>
</g>
<!-- zmq_asyncio&#45;&gt;simultons_simulation -->
<g id="edge37" class="edge">
<title>zmq_asyncio&#45;&gt;simultons_simulation</title><style>.edge>path:hover{stroke-width:8}</style>
<path fill="none" stroke="black" d="M846.07,-312.82C863.52,-299.22 886.67,-277.17 894.84,-251.07"/>
</g>
<!-- zmq_asyncio&#45;&gt;simultons_simulton -->
<g id="edge38" class="edge">
<title>zmq_asyncio&#45;&gt;simultons_simulton</title><style>.edge>path:hover{stroke-width:8}</style>
<path fill="none" stroke="black" d="M793.57,-316.15C766.14,-304.01 731.51,-282.19 737.84,-251.07"/>
</g>
</g>
</svg>
